<svg xmlns="http://www.w3.org/2000/svg" version="1.1" xmlns:xlink="http://www.w3.org/1999/xlink" preserveAspectRatio="none" x="0px" y="0px" width="50px" height="50px" viewBox="0 0 50 50">
	<defs>
		<g id="mybut_0_Layer0_0_FILL">
			<path fill="#495F85" stroke="none" d="
			M 22.05 0
			L 0 0 0 46 22.05 46 41 23 22.05 0
			M 21 16
			L 21 20 17 20 17 16 21 16
			M 11 16
			L 11 20 7 20 7 16 11 16
			M 11 30
			L 7 30 7 26 11 26 11 30
			M 17 30
			L 17 26 21 26 21 30 17 30 Z"/>
			<path fill="#FFFFFF" stroke="none" d="
			M 17 26
			L 17 30 21 30 21 26 17 26
			M 7 30
			L 11 30 11 26 7 26 7 30
			M 11 20
			L 11 16 7 16 7 20 11 20
			M 21 20
			L 21 16 17 16 17 20 21 20 Z"/>
		</g>
	</defs>
	<g id="thumbClip" transform="matrix( 1, 0, 0, 1, 0,0) ">
		<g transform="matrix( 1, 0, 0, 1, 0,0) ">
			<use xlink:href="#mybut_0_Layer0_0_FILL"/>
		</g>
	</g>
</svg>
